<?xml version="1.0" encoding="utf-8"?>
<!-- Generator: Adobe Illustrator 19.0.0, SVG Export Plug-In . SVG Version: 6.00 Build 0)  -->
<svg version="1.1" id="Layer_1" xmlns="http://www.w3.org/2000/svg" xmlns:xlink="http://www.w3.org/1999/xlink" x="0px" y="0px"
	 viewBox="54 -11 94 21" style="enable-background:new 54 -11 94 21;" xml:space="preserve">
<style type="text/css">
	.st0{enable-background:new    ;}
	.st1{fill:#002060;stroke:#002060;stroke-width:0.25;stroke-miterlimit:10;}
	.st2{fill:none;}
	.st3{fill:none;stroke:#000000;stroke-miterlimit:10;}
	.st4{fill:none;stroke:#0F4D7F;stroke-miterlimit:10;}
</style>
<g class="st0">
	<path class="st1" d="M56.3-9.7H60c1.5,0,2.6,0.2,3.4,0.5c0.8,0.4,1.4,0.9,1.9,1.6C65.8-6.8,66-6,66-5.1c0,0.8-0.2,1.6-0.6,2.3
		s-1,1.2-1.8,1.7c1,0.3,1.7,0.7,2.2,1.2c0.5,0.4,0.9,1,1.2,1.6c0.3,0.6,0.4,1.3,0.4,2.1c0,1.5-0.5,2.8-1.6,3.8
		c-1.1,1-2.6,1.6-4.4,1.6h-5.1V-9.7z M58.2-7.8v6h1.1c1.3,0,2.3-0.1,2.9-0.4s1.1-0.6,1.5-1.1c0.4-0.5,0.5-1.1,0.5-1.7
		c0-0.9-0.3-1.5-0.9-2c-0.6-0.5-1.6-0.7-2.9-0.7H58.2z M58.2,0v7.2h2.3c1.4,0,2.4-0.1,3-0.4c0.6-0.3,1.1-0.7,1.5-1.3
		s0.6-1.2,0.6-1.8c0-0.8-0.3-1.6-0.8-2.2s-1.3-1-2.2-1.3C61.9,0.1,60.8,0,59.2,0H58.2z"/>
	<path class="st1" d="M68.8-9.7h1.9l3.8,13.5l5.4-13.5h0.4l5.3,13.5l3.9-13.5h1.9L86,9h-0.3L80.1-5.1L74.5,9h-0.3L68.8-9.7z"/>
	<path class="st1" d="M104.9,4.4l1.5,0.8c-0.5,1-1.1,1.7-1.7,2.3c-0.6,0.6-1.4,1-2.2,1.4c-0.8,0.3-1.7,0.5-2.7,0.5
		c-2.3,0-4-0.7-5.3-2.2c-1.3-1.5-1.9-3.1-1.9-5c0-1.8,0.5-3.3,1.6-4.7c1.4-1.7,3.2-2.6,5.5-2.6c2.4,0,4.2,0.9,5.6,2.7
		c1,1.3,1.5,2.8,1.5,4.7H94.4c0,1.6,0.5,2.9,1.5,3.9c1,1,2.2,1.5,3.7,1.5c0.7,0,1.4-0.1,2.1-0.4c0.7-0.2,1.2-0.6,1.7-1
		C103.9,6,104.4,5.3,104.9,4.4z M104.9,0.7c-0.2-0.9-0.6-1.7-1-2.3s-1.1-1-1.8-1.4c-0.7-0.3-1.5-0.5-2.4-0.5c-1.4,0-2.5,0.4-3.5,1.3
		c-0.7,0.6-1.3,1.6-1.6,2.9H104.9z"/>
	<path class="st1" d="M110.3,9v-19.1h1.8v7.7c0.7-0.9,1.6-1.6,2.5-2.1c0.9-0.5,1.9-0.7,3-0.7c2,0,3.6,0.7,5,2.1
		c1.4,1.4,2.1,3.1,2.1,5.2c0,2-0.7,3.7-2.1,5.1s-3.1,2.1-5,2.1c-1.1,0-2.1-0.2-3.1-0.7c-0.9-0.5-1.7-1.2-2.4-2.2V9H110.3z
		 M117.4,7.6c1,0,1.9-0.2,2.7-0.7c0.8-0.5,1.5-1.2,2-2.1s0.7-1.8,0.7-2.8s-0.2-1.9-0.7-2.8s-1.2-1.6-2-2.1s-1.7-0.7-2.7-0.7
		c-1,0-1.9,0.2-2.8,0.7s-1.5,1.2-2,2S111.9,1,111.9,2c0,1.6,0.5,2.9,1.6,4C114.6,7.1,115.9,7.6,117.4,7.6z"/>
	<path class="st1" d="M128.8,7c0.3,0,0.6,0.1,0.8,0.3s0.3,0.5,0.3,0.8c0,0.3-0.1,0.6-0.3,0.8s-0.5,0.3-0.8,0.3s-0.6-0.1-0.8-0.3
		s-0.3-0.5-0.3-0.8c0-0.3,0.1-0.6,0.3-0.8S128.5,7,128.8,7z"/>
	<path class="st1" d="M133.1-5.3c0.3,0,0.5,0.1,0.8,0.3c0.2,0.2,0.3,0.5,0.3,0.8c0,0.3-0.1,0.5-0.3,0.8c-0.2,0.2-0.5,0.3-0.8,0.3
		c-0.3,0-0.5-0.1-0.7-0.3c-0.2-0.2-0.3-0.5-0.3-0.8c0-0.3,0.1-0.6,0.3-0.8C132.5-5.1,132.8-5.3,133.1-5.3z M132.4-1.1h1.3V9h-1.3
		V-1.1z"/>
	<path class="st1" d="M144.2,5.7l1.1,0.6c-0.4,0.7-0.8,1.3-1.2,1.7c-0.5,0.4-1,0.8-1.6,1c-0.6,0.2-1.3,0.3-2,0.3
		c-1.6,0-2.9-0.5-3.9-1.6c-0.9-1.1-1.4-2.3-1.4-3.7c0-1.3,0.4-2.4,1.2-3.4c1-1.3,2.3-1.9,4-1.9c1.7,0,3.1,0.7,4.1,2
		c0.7,0.9,1.1,2.1,1.1,3.5h-9.1c0,1.2,0.4,2.1,1.1,2.9s1.6,1.1,2.7,1.1c0.5,0,1-0.1,1.5-0.3s0.9-0.4,1.2-0.7
		C143.5,6.8,143.9,6.3,144.2,5.7z M144.2,2.9c-0.2-0.7-0.4-1.2-0.8-1.7c-0.3-0.4-0.8-0.7-1.3-1c-0.5-0.3-1.1-0.4-1.7-0.4
		c-1,0-1.8,0.3-2.6,1c-0.5,0.5-0.9,1.2-1.2,2.1H144.2z"/>
</g>
<text transform="matrix(1 0 0 1 53.9999 18.2925)" style="fill:#262626; font-family:'Corbel'; font-size:8px;">     </text>
<text transform="matrix(1 0 0 1 59.3332 19.126)" style="fill:#487CAD; font-family:'Corbel'; font-size:9px;">  </text>
<text class="st2"><textPath  xlink:href="#SVGID_x5F_1_x5F_" startOffset="60.547%">
</textPath>
</text>
<path id="XMLID_31_" class="st3" d="M98.5,6.4"/>
<path class="st4" d="M151.6,32.4"/>
</svg>
