<?xml version="1.0" standalone="no"?>
<!DOCTYPE svg PUBLIC "-//W3C//DTD SVG 20010904//EN"
 "http://www.w3.org/TR/2001/REC-SVG-20010904/DTD/svg10.dtd">
<svg version="1.0" xmlns="http://www.w3.org/2000/svg"
 width="320.000000pt" height="320.000000pt" viewBox="0 0 320.000000 320.000000"
 preserveAspectRatio="xMidYMid meet">
<metadata>
Created by potrace 1.11, written by Peter Selinger 2001-2013
</metadata>
<g transform="translate(0.000000,320.000000) scale(0.100000,-0.100000)"
fill="#000000" stroke="none">
<path d="M0 1600 l0 -1600 1600 0 1600 0 0 1600 0 1600 -1600 0 -1600 0 0
-1600z m837 606 c148 -47 235 -197 204 -348 -14 -67 -59 -138 -110 -175 l-38
-27 66 -31 c74 -36 132 -94 164 -164 16 -35 21 -67 22 -131 0 -77 -3 -92 -33
-152 -50 -101 -140 -171 -254 -198 -24 -5 -139 -10 -255 -10 l-213 0 0 631 0
631 198 -4 c146 -4 210 -9 249 -22z m743 -418 c69 -240 128 -439 131 -442 3
-3 84 193 181 437 111 280 181 443 190 445 11 2 34 -45 83 -170 37 -95 118
-299 178 -453 l110 -279 19 64 c10 36 68 239 129 453 l112 387 64 0 65 0 -7
-27 c-3 -16 -83 -298 -178 -628 -120 -417 -177 -601 -187 -603 -11 -2 -65 126
-199 468 -101 258 -185 470 -186 470 -2 0 -88 -212 -191 -470 -134 -335 -192
-470 -202 -468 -10 2 -70 200 -188 613 -95 336 -173 618 -174 628 0 16 8 18
63 15 l62 -3 125 -437z"/>
<path d="M520 1899 l0 -202 103 7 c132 9 186 27 232 77 44 49 55 76 55 140 0
56 -10 81 -48 122 -38 40 -108 57 -234 57 l-108 0 0 -201z"/>
<path d="M520 1334 l0 -236 163 4 c175 4 200 10 260 67 47 43 67 93 67 164 0
53 -5 71 -29 110 -59 92 -153 127 -343 127 l-118 0 0 -236z"/>
</g>
</svg>
