<svg xmlns="http://www.w3.org/2000/svg" width="100" height="100"><path d="M67.36 17.16C53.52 3.32 31 3.32 17.16 17.16 3.32 31 3.32 53.52 17.16 67.36c13.37 13.37 34.82 13.82 48.75 1.37l2.82 2.82c-.7 1.8-.33 3.9 1.1 5.36L84.7 91.77c1.94 1.95 5.1 1.95 7.06 0 1.95-1.96 1.95-5.12 0-7.08L76.9 69.84c-1.44-1.45-3.56-1.82-5.35-1.12l-2.82-2.8c12.46-13.94 12-35.4-1.37-48.76zM21.4 63.12C9.9 51.62 9.9 32.9 21.4 21.4s30.22-11.5 41.72 0 11.5 30.22 0 41.72-30.22 11.5-41.72 0zM28.4 28.15c5.03-5.02 10.87-8.67 17-10.94-6.94-.4-14.4 2.32-20.1 8.03-5.8 5.8-8.5 13.38-8 20.42 2.24-6.32 5.95-12.34 11.1-17.5z"/></svg>