<svg xmlns="http://www.w3.org/2000/svg" width="100" height="100"><path d="M62.92 93.34c-1.73-1.27-1.9-3.2-1.9-3.2L60.35 86H39.64L39 90.15s-.2 1.92-1.92 3.2c-1.74 1.27-3.1 2.36-1.74 2.55 1.32.17 13.74 0 14.66 0 .92 0 13.34.17 14.66 0 1.36-.2 0-1.28-1.73-2.56zM22.75 49.5h8v15h-8zM39.75 42.5h8v22h-8zM55.75 49.5h8v15h-8zM70.75 42.5h8v22h-8zM44.65 34.05l16.17 10.36 22.35-16.16L80.83 25 60.68 39.58 44.85 29.44l-28.02 14.4 1.85 3.55zM96 16H4c-2.2 0-4 1.8-4 4v58c0 2.2 1.8 4 4 4h92c2.2 0 4-1.8 4-4V20c0-2.2-1.8-4-4-4zm-2 54H6V22h88v48z"/></svg>