<svg xmlns="http://www.w3.org/2000/svg" width="100" height="100"><path d="M88.2 2.83C88.2 1.3 86.93 0 85.4 0 61.78 0 38.2 0 14.62 0c-1.54 0-2.83 1.3-2.83 2.83 0 31.45 0 62.9 0 94.34 0 1.54 1.28 2.83 2.82 2.83 23.6 0 47.17 0 70.76 0 .83 0 1.46-.3 1.92-.76.02-.02.05-.05.08-.07.02-.03.05-.06.07-.08.45-.46.76-1.1.76-1.93 0-31.45 0-62.9 0-94.34zm-5.65 91.5c-21.7 0-43.4 0-65.1 0 0-29.55 0-59.1 0-88.67 21.7 0 43.4 0 65.1 0 0 29.56 0 59.12 0 88.68zM25.17 16.5H46.5v4H25.17zM53.83 16h21.5v20h-21.5zM25.17 24.5H46.5v4H25.17zM25.17 32.5H46.5v4H25.17zM25.17 40.5h50.16v4H25.17zM25.17 50.5h50.16v4H25.17zM64.05 72.52h-2.18c-.28-1.1-.72-2.15-1.3-3.1l1.56-1.55c.47-.47.47-1.23 0-1.7l-2.55-2.55c-.47-.47-1.23-.47-1.7 0l-1.55 1.55c-.95-.57-2-1-3.1-1.3V61.7c0-.66-.52-1.2-1.18-1.2h-3.6c-.67 0-1.2.54-1.2 1.2v2.18c-1.08.28-2.13.72-3.1 1.3l-1.54-1.56c-.46-.47-1.22-.47-1.7 0l-2.53 2.55c-.47.46-.47 1.22 0 1.7l1.55 1.55c-.57.95-1 2-1.3 3.1h-2.17c-.67 0-1.2.52-1.2 1.18v3.6c0 .66.53 1.2 1.2 1.2h2.18c.28 1.08.72 2.13 1.28 3.1l-1.53 1.54c-.47.47-.47 1.23 0 1.7l2.54 2.54c.48.47 1.24.47 1.7 0l1.56-1.54c.96.56 2 1 3.1 1.28v2.2c0 .65.52 1.18 1.2 1.18h3.6c.65 0 1.17-.53 1.17-1.2v-2.18c1.1-.28 2.15-.72 3.1-1.28l1.55 1.54c.47.47 1.23.47 1.7 0l2.55-2.54c.47-.47.47-1.23 0-1.7l-1.55-1.55c.57-.97 1-2.02 1.3-3.1h2.17c.66 0 1.2-.53 1.2-1.2v-3.6c0-.66-.54-1.18-1.2-1.18zm-13.8 8.98c-3.3 0-6-2.7-6-6s2.7-6 6-6 6 2.7 6 6-2.7 6-6 6z"/></svg>