<svg xmlns="http://www.w3.org/2000/svg" width="100" height="100"><path d="M41.75 59.1v6.12L20 55.8v-5.24l21.75-9.43v6.16L26.6 53.12l15.15 5.97zM55.2 41l-6.05 24.93c-.2.82-.38 1.47-.53 1.95-.15.47-.4.85-.7 1.1-.3.28-.76.4-1.35.4-1.47 0-2.2-.63-2.2-1.9 0-.33.14-1.15.43-2.48l6.03-24.93c.32-1.33.62-2.23.9-2.72.3-.5.86-.74 1.7-.74.72 0 1.27.18 1.65.53.38.35.57.82.57 1.43 0 .44-.15 1.26-.45 2.44zM80 55.8l-21.75 9.46v-6.12l15.2-5.97-15.2-5.88V41.2L80 50.6v5.2zM94 6H6c-3.3 0-6 2.7-6 6v76c0 3.3 2.7 6 6 6h88c3.3 0 6-2.7 6-6V12c0-3.3-2.7-6-6-6zm-15 4c2.2 0 4 1.8 4 4s-1.8 4-4 4-4-1.8-4-4 1.8-4 4-4zm-11 0c2.2 0 4 1.8 4 4s-1.8 4-4 4-4-1.8-4-4 1.8-4 4-4zm26 78H6V22h88v66zm-4-70c-2.2 0-4-1.8-4-4s1.8-4 4-4 4 1.8 4 4-1.8 4-4 4z"/></svg>