<svg xmlns="http://www.w3.org/2000/svg" viewBox="0 0 60 24">
  <path class="media-objectSVG" d="M59 10h-2.2C55.9 4.3 51 0 45.1 0c-5.8 0-10.7 4.1-11.8 9.6 -1-0.8-2.1-1.2-3.2-1.2 -1.2 0-2.3 0.4-3.2 1.2C25.6 4.1 20.8 0 15.1 0 8.8 0 3.6 4.9 3.1 11H1c-0.6 0-1 0.4-1 1s0.4 1 1 1h2.1c0.5 6.1 5.7 11 12 11 6.5 0 11.7-5.2 11.9-11.7 0.9-1.3 1.9-2 3-2s2.2 0.7 3 2C33.2 18.8 38.5 24 45.1 24 51.6 24 57 18.6 57 12h2c0.6 0 1-0.4 1-1S59.6 10 59 10zM15.1 22C9.5 22 5 17.5 5 12S9.5 2 15.1 2C20.6 2 25 6.4 25 12S20.6 22 15.1 22zM45.1 22C39.5 22 35 17.5 35 12S39.5 2 45.1 2C50.6 2 55 6.4 55 12S50.6 22 45.1 22z"/>
</svg>
