<svg xmlns="http://www.w3.org/2000/svg" width="100" height="100"><path d="M79.35 12.1c-16.2-16.22-42.4-16.1-58.6.12s-16.32 42.46-.12 58.66L49.93 100l29.33-29.35c16.2-16.2 16.3-42.35.1-58.56zM50 76.75c-19.6 0-35.5-15.9-35.5-35.5S30.4 5.76 50 5.76s35.5 15.9 35.5 35.5-15.9 35.5-35.5 35.5z"/><path d="M48.02 16c1.52-1.3 4.18-.86 5.04 1 1.75 4.32 3.46 8.65 5.2 12.98.02.14.16.2.3.2 4.33.3 8.67.64 13 .95 1.25.03 2.48.72 3.05 1.85.7 1.27.47 3.03-.67 3.96-3.5 2.88-6.96 5.8-10.45 8.68-.1.08-.2.17-.26.28.98 4.3 2.1 8.56 3.12 12.84.78 2.15-1.05 4.68-3.35 4.5-.8 0-1.5-.43-2.13-.86-3.42-2.16-6.84-4.32-10.27-6.48-.3-.18-.56-.4-.9-.5-3.87 2.33-7.7 4.77-11.57 7.13-1.06.63-2.47.62-3.52-.05-1.1-.66-1.77-2-1.5-3.28 1.1-4.58 2.36-9.14 3.43-13.73-3.15-2.7-6.34-5.35-9.5-8.04-.72-.58-1.5-1.2-1.8-2.1-.76-1.8.44-4.17 2.43-4.46 4.73-.4 9.5-.56 14.2-1 1.65-3.9 3.22-7.83 4.83-11.74.3-.8.64-1.6 1.32-2.12z"/></svg>