<svg xmlns="http://www.w3.org/2000/svg" width="100" height="100"><path d="M66.36 17.16C52.52 3.32 30 3.32 16.16 17.16 2.32 31 2.32 53.52 16.16 67.36c13.37 13.37 34.82 13.82 48.75 1.37l2.82 2.82c-.7 1.8-.33 3.9 1.1 5.35L83.7 91.75c1.94 1.96 5.1 1.96 7.05 0 1.96-1.94 1.96-5.1 0-7.06L75.9 69.83c-1.44-1.45-3.56-1.82-5.35-1.12l-2.82-2.8c12.46-13.94 12-35.4-1.37-48.76zM20.4 63.12C8.9 51.62 8.9 32.9 20.4 21.4s30.22-11.5 41.72 0 11.5 30.22 0 41.72-30.22 11.5-41.72 0zM38.62 49.74l-3.08-3.08 8.5-8.5c4 2.36 9.25 1.83 12.7-1.6 4.05-4.07 4.05-10.7-.02-14.77-4.07-4.08-10.7-4.08-14.77 0-3.43 3.42-3.95 8.67-1.6 12.67L25.3 49.53c-.7.68-.7 1.78 0 2.46l1.22 1.22c.68.68 1.78.68 2.46 0l2.87-2.87 3.08 3.08c.68.68 1.78.68 2.46 0l1.22-1.23c.68-.68.68-1.78 0-2.46zm5.8-25.5c2.7-2.7 7.13-2.7 9.84 0 2.7 2.73 2.7 7.14 0 9.86-2.7 2.7-7.13 2.7-9.85 0-2.7-2.72-2.7-7.14.02-9.85zM29.1 58.64l1.04 3.57.95-3.3c.1-.36.17-.6.22-.72.05-.13.14-.25.27-.36.13-.12.3-.18.55-.18.23 0 .42.06.56.18.14.1.24.24.3.37.05.13.12.36.22.7l.95 3.3 1.05-3.56c.07-.26.13-.44.17-.56.04-.12.1-.22.2-.3s.26-.14.45-.14c.2 0 .36.07.5.2s.2.3.2.47c0 .17-.05.42-.17.75l-1.3 3.84c-.12.3-.2.55-.28.7s-.16.26-.3.38c-.13.1-.3.17-.55.17-.24 0-.43-.07-.57-.2-.13-.1-.24-.26-.3-.43-.07-.18-.14-.4-.22-.7l-.92-3.1-.88 3.1c-.12.45-.24.77-.38 1-.14.2-.38.32-.72.32-.18 0-.33-.03-.45-.1s-.22-.17-.3-.3-.15-.27-.22-.45c-.06-.18-.1-.32-.14-.42l-1.3-3.83c-.13-.36-.2-.6-.2-.74 0-.17.08-.32.22-.46.13-.13.3-.2.5-.2.27 0 .44.07.54.22.1.16.2.4.3.78zM38.85 58.64l1.05 3.57.95-3.3c.1-.36.17-.6.22-.72.05-.13.14-.25.28-.36.13-.12.32-.18.55-.18.24 0 .43.06.56.18.14.1.23.24.28.37.06.13.14.36.23.7l.95 3.3 1.06-3.56c.07-.26.12-.44.17-.56.04-.12.1-.22.2-.3.12-.1.26-.14.45-.14.2 0 .36.07.5.2s.2.3.2.47c0 .17-.05.42-.17.75l-1.3 3.84c-.12.3-.2.55-.27.7-.06.13-.16.26-.3.38-.13.1-.32.17-.55.17-.23 0-.42-.07-.56-.2-.14-.1-.24-.26-.3-.43-.08-.18-.15-.4-.23-.7l-.9-3.1-.89 3.1c-.1.45-.23.77-.37 1-.13.2-.37.32-.72.32-.16 0-.3-.03-.43-.1s-.23-.17-.3-.3c-.1-.12-.17-.27-.23-.44-.06-.18-.1-.32-.15-.42l-1.3-3.83c-.13-.36-.2-.6-.2-.74 0-.16.07-.32.2-.45.15-.14.32-.2.52-.2.26 0 .44.06.53.22.1.15.2.4.3.77zM48.6 58.64l1.05 3.57.95-3.3c.1-.36.18-.6.23-.72.05-.13.14-.25.27-.36.14-.12.32-.18.56-.18s.42.06.56.18c.14.1.23.24.28.37.06.13.13.36.23.7l.95 3.3 1.06-3.56c.07-.26.12-.44.17-.56.05-.12.12-.22.22-.3s.25-.14.44-.14.36.07.5.2.2.3.2.47c0 .17-.05.42-.17.75l-1.32 3.84c-.1.3-.2.55-.26.7-.07.13-.16.26-.3.38-.14.1-.32.17-.56.17-.24 0-.43-.07-.56-.2-.14-.1-.25-.26-.3-.43-.08-.18-.15-.4-.23-.7l-.92-3.1-.88 3.1c-.12.45-.25.77-.38 1-.15.2-.4.32-.73.32-.18 0-.33-.03-.45-.1s-.23-.17-.3-.3-.16-.27-.23-.45-.12-.32-.15-.42l-1.3-3.83c-.13-.36-.2-.6-.2-.74 0-.17.08-.32.22-.46.13-.13.3-.2.5-.2.27 0 .44.07.54.22.1.16.2.4.3.78z"/></svg>