<svg xmlns="http://www.w3.org/2000/svg" width="100" height="100"><path d="M87.44 45.37c-.53-1.96-5.53-2.13-7.53-1.46-7.3 2.44-14.6 4.87-21.9 7.3L32.62 41.07l-2.67 2.86L40.8 56.96C33.83 59.38 21 63.84 18.7 64.6c-2 .68 12.94 2.8 16.36 2.23 0 0 26.3-8.58 37.94-12.45 3-1 5.98-2 8.98-3 2-.65 6.07-3.9 5.48-6.02zM14.53 55.34l-2.03 1.88 5.4 6.3 7.8-2.76zM94 6H6c-3.3 0-6 2.7-6 6v76c0 3.3 2.7 6 6 6h88c3.3 0 6-2.7 6-6V12c0-3.3-2.7-6-6-6zm-15 4c2.2 0 4 1.8 4 4s-1.8 4-4 4-4-1.8-4-4 1.8-4 4-4zm-11 0c2.2 0 4 1.8 4 4s-1.8 4-4 4-4-1.8-4-4 1.8-4 4-4zm26 78H6V22h88v66zm-4-70c-2.2 0-4-1.8-4-4s1.8-4 4-4 4 1.8 4 4-1.8 4-4 4z"/></svg>