<svg xmlns="http://www.w3.org/2000/svg" width="100" height="100"><path d="M43.7 60.43L31 73.1c-4.6 4.63-12.45 4.3-17.47-.72S8.18 59.52 12.8 54.9l14.37-14.37c4.62-4.62 12.46-4.3 17.48.73 2.13 2.14 3.4 4.8 3.83 7.48 1.86-.2 3.6-.96 4.98-2.32l.53-.53c-.86-3.23-2.55-6.32-5.1-8.88-7.37-7.36-19.02-7.7-25.97-.73L8.56 50.65c-6.96 6.96-6.63 18.6.73 25.96s19 7.7 25.95.73l14.37-14.37c.82-.8 1.52-1.7 2.14-2.63-2.64.55-5.38.56-8.07.08zM47.5 11.72L33.13 26.1c-.82.8-1.53 1.7-2.14 2.62 2.63-.54 5.37-.55 8.05-.07l12.7-12.7c4.6-4.6 12.45-4.28 17.47.74s5.35 12.85.73 17.47L55.58 48.54c-4.62 4.62-12.45 4.3-17.48-.73-2.13-2.13-3.4-4.78-3.83-7.47-1.86.2-3.6.96-4.98 2.32l-.54.53c.85 3.22 2.54 6.3 5.1 8.87 7.36 7.36 19 7.7 25.96.73L74.2 38.4c6.95-6.95 6.62-18.6-.74-25.95s-19-7.7-25.96-.73zM77 58.6c-11.05 0-20 8.97-20 20s8.95 20 20 20 20-8.94 20-20-8.95-20-20-20zm11.75 24.13h-7.4v7.43c0 2.34-1.9 4.23-4.22 4.23s-4.23-1.9-4.23-4.24v-7.43h-7.4c-2.33 0-4.23-1.9-4.23-4.23 0-2.33 1.9-4.22 4.23-4.22h7.4V66.9c0-2.33 1.9-4.22 4.22-4.22s4.23 1.9 4.23 4.23v7.38h7.4c2.34 0 4.23 1.9 4.23 4.22 0 2.34-1.9 4.23-4.23 4.23z"/></svg>