<svg xmlns="http://www.w3.org/2000/svg" width="100" height="100"><path d="M67.36 17.16C53.52 3.32 31 3.32 17.16 17.16 3.32 31 3.32 53.52 17.16 67.36 30.53 80.73 52 81.18 65.9 68.73l2.82 2.82c-.7 1.8-.33 3.9 1.12 5.36L84.7 91.77c1.94 1.95 5.1 1.95 7.06 0 1.95-1.96 1.95-5.12 0-7.07L76.9 69.83c-1.44-1.45-3.56-1.82-5.35-1.12l-2.8-2.8c12.44-13.94 11.98-35.4-1.4-48.76zM21.4 63.12C9.9 51.62 9.9 32.9 21.4 21.4s30.22-11.5 41.72 0 11.5 30.22 0 41.72-30.22 11.5-41.72 0zM54 22.93c-6.48-6.5-16.95-6.43-23.44.05s-6.53 16.98-.04 23.46l11.7 11.65 11.75-11.75c6.48-6.48 6.52-16.94.03-23.42zM42.27 44.58c-5.5 0-10-4.47-10-10 0-5.5 4.5-9.97 10-9.97 5.52 0 10 4.48 10 10 0 5.5-4.48 9.98-10 9.98zM42.08 61.33c4.16 0 8.1.9 11.58 2.5-2.72-3.03-6.93-5-11.66-5-4.8 0-9.06 2.03-11.77 5.14 3.56-1.68 7.58-2.64 11.85-2.64z"/></svg>