<svg xmlns="http://www.w3.org/2000/svg" width="100" height="100"><path d="M94.76 31.63l-2 .83c-.7-.9-1.5-1.7-2.4-2.37l.85-2.03c.26-.6-.03-1.32-.64-1.57l-3.33-1.38c-.6-.25-1.3.04-1.57.65l-.84 2.02c-1.1-.17-2.24-.17-3.35 0l-.84-2.03c-.25-.6-.94-.9-1.55-.65l-3.33 1.38c-.6.25-.9.95-.64 1.56l.85 2c-.9.7-1.7 1.5-2.37 2.4l-2.02-.85c-.62-.24-1.32.05-1.57.66l-1.4 3.33c-.25.6.04 1.3.66 1.56l2.02.84c-.16 1.1-.16 2.24 0 3.35l-2.02.84c-.6.24-.9.93-.65 1.54L70 47.07c.26.6.95.9 1.57.63l2-.83c.7.9 1.5 1.7 2.38 2.37l-.83 2.02c-.25.62.04 1.32.65 1.57l3.33 1.38c.6.27 1.3-.02 1.56-.64l.85-2.02c1.08.16 2.22.16 3.34 0l.84 2.02c.25.6.94.9 1.55.65l3.33-1.36c.6-.26.9-.95.63-1.57l-.84-2c.9-.7 1.7-1.5 2.37-2.38l2.02.82c.6.26 1.32-.04 1.57-.65l1.38-3.32c.25-.62-.04-1.32-.65-1.57l-2.02-.85c.15-1.1.16-2.23 0-3.35l2.02-.83c.6-.26.9-.95.65-1.56l-1.38-3.33c-.25-.62-.95-.9-1.56-.64zm-9.3 13.58c-3.07 1.28-6.58-.18-7.85-3.24-1.26-3.06.2-6.57 3.26-7.84 3.06-1.26 6.57.2 7.84 3.25 1.27 3.06-.2 6.57-3.25 7.84zM80.15 57.5V84h-44V17h44v4.82h5V8c0-4.42-3.58-8-8-8h-38c-4.4 0-8 3.58-8 8v84c0 4.42 3.6 8 8 8h38c4.42 0 8-3.58 8-8V57.5h-5zM54.2 9h8c.54 0 1 .45 1 1s-.46 1-1 1h-8c-.57 0-1-.45-1-1s.43-1 1-1zm3.65 86.27c-2.2 0-4-1.8-4-4s1.8-4 4-4 4 1.8 4 4-1.8 4-4 4zM2.2 25.53h24v5h-24zM8.2 35.53h18v5h-18zM20.2 45.53h6v5h-6z"/></svg>