<svg xmlns="http://www.w3.org/2000/svg" width="100" height="100"><path d="M94 6H6c-3.3 0-6 2.7-6 6v76c0 3.3 2.7 6 6 6h88c3.3 0 6-2.7 6-6V12c0-3.3-2.7-6-6-6zm-15 4c2.2 0 4 1.8 4 4s-1.8 4-4 4-4-1.8-4-4 1.8-4 4-4zm-11 0c2.2 0 4 1.8 4 4s-1.8 4-4 4-4-1.8-4-4 1.8-4 4-4zm26 78H6V22h88v66zm-4-70c-2.2 0-4-1.8-4-4s1.8-4 4-4 4 1.8 4 4-1.8 4-4 4zM47.9 32.73c1.4-.18 2.8-.17 4.2 0 0 3.85 0 7.7 0 11.54-1.4-.07-2.8-.07-4.2.04.05-3.85 0-7.7 0-11.57zM32.9 36.47c1.26-.54 2.52-1.08 3.8-1.56 1.54 3.57 3 7.16 4.47 10.74-1.35.4-2.58 1.07-3.9 1.55-1.4-3.6-3-7.12-4.36-10.73zM58.85 45.63c1.46-3.58 2.93-7.15 4.45-10.7 1.3.45 2.56 1 3.8 1.54-1.36 3.6-2.94 7.12-4.36 10.7-1.3-.47-2.56-1.1-3.9-1.54zM20.54 45.88c.7-1.15 1.88-2.1 2.92-3 2.66 2.8 5.52 5.4 8.13 8.23-1.1.87-2 1.93-3 2.9-2.65-2.73-5.38-5.4-8.06-8.12zM76.54 42.95c1.1.73 2.2 1.83 2.93 2.92-2.68 2.73-5.4 5.4-8.1 8.12-.93-1.04-1.94-2-2.95-2.96 2.7-2.7 5.4-5.42 8.12-8.1zM14.07 55.3c3.6 1.35 7.1 2.96 10.7 4.37-.44 1.33-1.15 2.55-1.53 3.9-3.58-1.48-7.17-2.95-10.74-4.45.48-1.28 1.02-2.55 1.57-3.8zM75.24 59.67c3.6-1.4 7.1-3.02 10.7-4.36.57 1.26 1.1 2.53 1.56 3.82-3.56 1.5-7.13 2.98-10.7 4.45-.42-1.34-1.12-2.57-1.56-3.9zM50.88 70.78c-.34-.07-.7-.1-1.05-.1-2.76 0-5 2.22-5 5s2.24 5 5 5c2.74 0 4.96-2.22 5-4.96l8.25-12.8-12.2 7.86z"/></svg>