<svg xmlns="http://www.w3.org/2000/svg" width="100" height="100"><path d="M94 6H6c-3.3 0-6 2.7-6 6v76c0 3.3 2.7 6 6 6h88c3.3 0 6-2.7 6-6V12c0-3.3-2.7-6-6-6zm-15 4c2.2 0 4 1.8 4 4s-1.8 4-4 4-4-1.8-4-4 1.8-4 4-4zm-11 0c2.2 0 4 1.8 4 4s-1.8 4-4 4-4-1.8-4-4 1.8-4 4-4zm26 78H6V22h88v66zm-4-70c-2.2 0-4-1.8-4-4s1.8-4 4-4 4 1.8 4 4-1.8 4-4 4z"/><g><path d="M50.42 31.05c.46-.17.95.1 1.2.46.68.9 1.33 1.82 2 2.72.54.76 1.6 1.12 2.5.84 1.13-.36 2.25-.75 3.4-1.1.6-.17 1.27.3 1.3.95.02 1.18.03 2.35.02 3.52-.02.93.6 1.82 1.47 2.15 1.16.37 2.32.73 3.46 1.14.6.22.85 1 .5 1.54-.67.98-1.4 1.93-2.1 2.9-.5.72-.5 1.74-.05 2.5.7.98 1.44 1.95 2.13 2.94.37.52.17 1.32-.43 1.57-1.13.4-2.3.75-3.44 1.14-.8.26-1.42 1.04-1.5 1.88-.03 1.25-.02 2.5-.04 3.73 0 .67-.66 1.2-1.3 1.02-1.14-.33-2.26-.73-3.4-1.08-.87-.3-1.92.04-2.47.8-.7.94-1.4 1.9-2.1 2.86-.4.52-1.24.52-1.63 0-.72-.94-1.4-1.92-2.1-2.87-.58-.76-1.65-1.1-2.55-.77-1.08.34-2.16.7-3.24 1.04-.66.24-1.4-.3-1.4-1 0-1.13 0-2.27 0-3.42 0-.95-.63-1.87-1.53-2.18-1.12-.38-2.25-.73-3.37-1.12-.62-.2-.9-1-.52-1.53.66-1 1.4-1.93 2.08-2.9.55-.75.55-1.85 0-2.6-.68-.97-1.4-1.93-2.08-2.9-.35-.54-.1-1.33.5-1.54 1.13-.4 2.27-.74 3.4-1.1.8-.28 1.4-1.05 1.5-1.88.05-1.27 0-2.55.04-3.82.03-.64.7-1.1 1.32-.92 1.13.34 2.26.73 3.4 1.1.9.28 2-.12 2.53-.9.58-.85 1.2-1.68 1.8-2.5.18-.28.4-.54.72-.63zM64.05 60.16c3.67 3.8 7.3 7.64 10.95 11.46-3.12.02-6.25 0-9.37 0 0 3.13 0 6.26 0 9.38-4.26-4.57-8.53-9.13-12.78-13.7.85-.66 1.44-1.57 2.05-2.45.72.16 1.4.47 2.13.63 1.4.32 2.92.1 4.17-.62 1.67-.96 2.7-2.8 2.85-4.7zM25 71.62c3.25-3.4 6.46-6.83 9.74-10.2.62 2.4 2.92 4.22 5.4 4.2 1.22.06 2.35-.45 3.5-.78.8 1.16 1.64 2.37 2.92 3.05-4.06 4.36-8.12 8.73-12.2 13.1 0-3.12.02-6.25 0-9.37-3.12-.02-6.24 0-9.36 0z"/></g></svg>