<svg xmlns="http://www.w3.org/2000/svg" width="100" height="100"><path fill="#020202" d="M97.94 75.22c-.4-.3-49.53-27.23-49.98-27.42l27.42 50c.06-7.52 0-15.05.03-22.57 7.52 0 15.03 0 22.54 0z"/><path d="M50.75 61.2c-1.78.64-3.7 1-5.7 1-9.36 0-17-7.62-17-17s7.64-17 17-17 17 7.63 17 17c0 1.85-.3 3.62-.84 5.28 1.7.92 3.48 1.9 5.34 2.92.98-2.55 1.52-5.3 1.52-8.2 0-12.68-10.32-23-23-23s-23 10.32-23 23 10.32 23 23 23c3.04 0 5.95-.6 8.6-1.68l-2.9-5.32zM60.43 78.85c-4.7 2.15-9.9 3.35-15.37 3.35-20.4 0-37-16.6-37-37s16.6-37 37-37 37 16.6 37 37c0 5.32-1.14 10.38-3.17 14.96 1.78 1 3.55 1.96 5.26 2.9 2.5-5.45 3.9-11.5 3.9-17.86 0-23.7-19.3-43-43-43s-43 19.3-43 43 19.3 43 43 43c6.52 0 12.7-1.47 18.26-4.08l-2.9-5.27z"/></svg>