<svg xmlns="http://www.w3.org/2000/svg" width="100" height="100"><path d="M71.78 28.22c.78.77 2.02.77 2.8 0L89.4 13.36c.77-.77.77-2 0-2.78-.77-.77-2.02-.77-2.78 0L71.78 25.43c-.76.77-.76 2.02 0 2.8zM60.84 37.65c-.9-.9-1.8-1.52-2.74-1.88-.94-.37-1.85-.45-2.7-.25s-1.66.64-2.35 1.33c-.5.5-.85 1.04-1.1 1.64-.22.6-.3 1.22-.26 1.88.05.65.26 1.34.64 2.07.37.72.9 1.42 1.6 2.1.68.7 1.4 1.24 2.12 1.62.73.38 1.44.6 2.13.65.67.05 1.3-.04 1.9-.27.6-.23 1.14-.6 1.63-1.08.63-.63 1.06-1.37 1.27-2.2.2-.85.14-1.76-.2-2.73-.35-.96-1-1.93-1.96-2.9zM85.83 25.3l-2.8-2.77-3.48 3.5c.48 2.3-.17 4.8-1.96 6.6-2.83 2.8-7.4 2.8-10.22 0-2.82-2.82-2.82-7.4 0-10.22 1.8-1.78 4.3-2.43 6.6-1.94l3.5-3.5-2.8-2.8c-1.9-1.9-21.74-1.9-23.67 0L11.45 53.75c-1.92 1.93-1.92 5.04 0 6.97L39.3 88.57c1.92 1.92 5.03 1.92 6.96 0L85.83 49c1.92-1.94 1.92-21.76 0-23.7zM42.18 67.96c-.4 1.06-1.1 2.1-2.1 3.1-1.2 1.2-2.42 1.95-3.65 2.27-.87.23-1.76.24-2.65.05-.9-.2-1.6-.56-2.1-1.07-.3-.3-.45-.66-.46-1.08 0-.42.15-.8.48-1.1.25-.27.56-.4.9-.42.35-.02.75.08 1.2.28.54.23 1.03.38 1.47.47.44.08.9.04 1.4-.12.5-.16 1-.5 1.54-1.03.74-.73 1.16-1.5 1.28-2.3.1-.78-.08-1.43-.6-1.94-.4-.4-.84-.6-1.34-.62-.5 0-1 .12-1.53.38-.5.26-1.18.64-1.98 1.14-1.07.67-2.04 1.16-2.9 1.48-.87.3-1.7.4-2.52.28-.82-.13-1.58-.54-2.28-1.24-.67-.67-1.08-1.45-1.24-2.33-.15-.9-.02-1.8.4-2.78.4-.97 1.07-1.92 2-2.86.75-.73 1.5-1.28 2.22-1.64.73-.36 1.42-.57 2.1-.62.66-.05 1.24 0 1.74.18.5.17.92.42 1.24.74.3.3.45.66.48 1.1.02.44-.12.82-.43 1.13-.28.27-.56.4-.85.42s-.68-.07-1.17-.22c-.67-.23-1.3-.33-1.86-.28-.56.06-1.2.43-1.87 1.1-.64.65-1 1.3-1.12 1.97-.1.65.03 1.18.42 1.58.24.24.52.38.83.43.3.05.64.02 1-.08s.7-.24 1-.4c.3-.17.8-.46 1.5-.87.84-.52 1.64-.97 2.38-1.33.75-.36 1.46-.6 2.13-.7.67-.13 1.32-.08 1.97.12.64.2 1.26.62 1.88 1.23.73.74 1.2 1.6 1.4 2.55.22.95.12 1.97-.27 3.03zm12.8-12.23l-6.7 6.7c-.52.53-1.03.8-1.5.8s-.97-.28-1.5-.8l-9.14-9.14c-.35-.35-.6-.7-.7-1.02-.12-.33-.12-.66 0-.98s.36-.67.7-1l6.5-6.5c.4-.4.77-.6 1.14-.62.36-.02.68.1.97.4.28.28.42.6.4.97 0 .37-.22.75-.6 1.14l-5.56 5.54 2.98 3 5.1-5.1c.38-.4.74-.58 1.1-.6.35-.02.66.1.94.4.28.27.4.58.4.94s-.2.73-.58 1.1l-5.1 5.1 3.45 3.46L53 53.77c.4-.4.77-.6 1.15-.6.37-.02.7.12 1 .42.3.28.43.6.42.98-.03.38-.23.76-.62 1.15zm10.82-11.3c-.44 1.04-1.14 2.04-2.1 3-.95.94-1.95 1.64-3 2.08-1.07.45-2.13.64-3.2.6-1.05-.07-2.1-.36-3.14-.9-1.04-.5-2.02-1.23-2.93-2.14-.93-.94-1.66-1.93-2.17-2.97-.5-1.06-.78-2.1-.82-3.17-.04-1.05.16-2.1.6-3.1.44-1.03 1.12-2 2.05-2.93 1.25-1.26 2.6-2.08 4-2.48s2.83-.35 4.23.13c1.4.48 2.75 1.35 4.02 2.62.94.94 1.66 1.92 2.18 2.95.5 1.02.8 2.06.85 3.14.06 1.07-.14 2.12-.58 3.16z"/></svg>