<svg xmlns="http://www.w3.org/2000/svg" width="100" height="100"><path d="M67.36 16.16C53.52 2.32 31 2.32 17.16 16.16 3.32 30 3.32 52.52 17.16 66.36c13.36 13.37 34.82 13.82 48.75 1.37l2.82 2.82c-.7 1.8-.33 3.9 1.1 5.35L84.7 90.76c1.94 1.95 5.1 1.95 7.05 0 1.96-1.95 1.96-5.12 0-7.07L76.9 68.83c-1.44-1.45-3.56-1.82-5.35-1.12l-2.82-2.8c12.46-13.94 12-35.4-1.37-48.76zM21.4 62.12C9.9 50.62 9.9 31.9 21.4 20.4s30.22-11.5 41.72 0 11.5 30.22 0 41.72-30.22 11.5-41.72 0zM39.35 42.81l-.84-12.64c-.15-2.47-.23-4.24-.23-5.3 0-1.47.38-2.6 1.15-3.43.77-.82 1.77-1.23 3.03-1.23 1.5 0 2.52.52 3.03 1.57.5 1.05.77 2.56.77 4.53 0 1.16-.06 2.34-.2 3.54l-1.12 13.03c-.12 1.55-.4 2.74-.8 3.57-.4.82-1.07 1.24-2 1.24-.95 0-1.6-.4-1.98-1.2-.37-.8-.64-2.03-.8-3.66zm2.94 17.4c-1.1 0-2.02-.35-2.83-1.05-.8-.7-1.2-1.66-1.2-2.9 0-1.1.38-2.04 1.15-2.8.77-.77 1.7-1.15 2.8-1.15s2.07.38 2.86 1.15c.78.76 1.17 1.7 1.17 2.8 0 1.22-.4 2.2-1.2 2.9-.78.7-1.7 1.05-2.76 1.05zM24.26 81.5h36v4h-36zM32.26 90.22h20v4h-20z"/></svg>