<svg xmlns="http://www.w3.org/2000/svg" width="100" height="100"><path d="M96 22.6L84.28 12.38 72.56 2.16 60.83 12.38 49.1 22.6h12.84C57.62 49.13 33.1 69.77 5.2 65.38c-1.22-.2-1.7 1.46-.5 1.88C39.4 79.34 79.4 59.5 85.2 22.6H96zM70 56.88c-3.6 3.33-7.63 6.23-12 8.66V98.5h12V56.88zM40 98.5h12V68.48c-3.8 1.63-7.83 2.9-12 3.8V98.5zM76 98.5h12V25.6h-.3c-1.9 9.3-5.97 17.73-11.7 24.84V98.5zM16 73.08c-4.08-.6-8.1-1.55-12-2.9V98.5h12V73.08zM22 98.5h12V73.3c-2.73.32-5.5.5-8.34.5-1.22 0-2.44-.05-3.66-.12V98.5z"/></svg>