<svg xmlns="http://www.w3.org/2000/svg" width="100" height="100"><path d="M50 0C22.43 0 0 22.43 0 50s22.43 50 50 50 50-22.43 50-50S77.57 0 50 0zm3 93.9V86h-6v7.9C25.13 92.4 7.6 74.86 6.1 53H14v-6H6.1C7.6 25.13 25.14 7.6 47 6.1V14h6V6.1C74.87 7.6 92.4 25.14 93.9 47H86v6h7.9C92.4 74.87 74.86 92.4 53 93.9z"/><path fill="#020201" d="M29.04 59.52c3.1-2.05 6.53-3.3 9.85-4.38.47-.16.95-.37 1.42-.53l.1-.05c.7-.25 1.37-.5 1.9-.8.04-.05.07-.15.12-.3-2.74-4-4.6-10.18-4.6-15.47 0-4.48 1.4-7.8 4.07-9.83-1.14-.6-2.53-.8-4.02-.8-3.98 0-7.2 1.58-7.2 7.28 0 3.8 1.42 8.44 3.54 11.13-.02.22-.05.43-.08.64-.13.58-.33 1.23-.88 1.55-.6.37-1.28.6-1.94.83-2.76.92-5.6 1.74-8.05 3.37-1.27.83-2.13 2.5-2.6 3.92-.5 1.48-.7 2.93-.67 4.93h7.5c.5-1 1-1.12 1.54-1.48zM76.73 52.2c-2.44-1.62-5.3-2.47-8.05-3.4-.66-.23-1.34-.47-1.94-.83-.55-.32-.75-.98-.88-1.56-.05-.3-.1-.6-.1-.92 2-2.73 3.32-7.2 3.32-10.85 0-5.7-3.22-7.3-7.2-7.3-1.5 0-2.9.24-4.07.84 2.64 2.03 4.04 5.34 4.04 9.8 0 5.16-1.73 11.1-4.35 15.1 0 .05 0 .1 0 .14.08.33.13.5.17.57.58.32 1.27.57 2.03.85l1.16.38c3.4 1.13 6.93 2.5 10.1 4.6.52.34 1 .4 1.46 1.4H80c.02-2-.18-3.45-.66-4.93-.48-1.42-1.34-3.03-2.6-3.87z"/><path d="M69.64 61.42c-3.26-2.16-7.06-3.3-10.73-4.53-.87-.32-1.77-.65-2.58-1.14-.73-.43-1-1.3-1.17-2.07-.07-.42-.1-.84-.14-1.26 2.67-3.64 4.44-9.58 4.44-14.45 0-7.62-4.3-9.74-9.6-9.74s-9.6 2.1-9.6 9.72c0 5.05 1.9 11.25 4.72 14.84-.03.3-.06.57-.1.85-.18.77-.45 1.64-1.17 2.07-.83.48-1.73.8-2.6 1.1-3.68 1.23-7.48 2.32-10.74 4.5-1.7 1.1-2.85 3.26-3.48 5.16-.65 1.97-.92 4.5-.88 6.5h48c.04-2-.23-4.53-.88-6.5-.64-1.9-1.78-3.96-3.48-5.08z"/></svg>