<svg xmlns="http://www.w3.org/2000/svg" width="100" height="100"><path d="M62.92 93.34c-1.73-1.27-1.9-3.2-1.9-3.2L60.35 86H39.64L39 90.15s-.2 1.92-1.92 3.2c-1.74 1.27-3.1 2.36-1.74 2.55 1.32.17 13.74 0 14.66 0 .92 0 13.34.17 14.66 0 1.36-.2 0-1.28-1.73-2.56zM26.67 60.15c5.53-.04 6.22-1.37 8.02-6.93 3.32-8.77 18.3 2.3 9.02 6.13-9.3 3.85-22.6.84-17.05.8zM83.4 2.37C80.73.2 76.3 1.27 73.48 4.75L45.07 45.1c-2.8 3.46-2.78 2.8-.1 4.96 2.7 2.16 2.05 2.32 4.85-1.16L83.2 12.6c2.8-3.5 2.9-8.07.2-10.23zM76.1 7.2s-.4-.48-1.8-1.6c2.1-3.38 6.16-2.76 6.16-2.76C76.6 5.14 76.1 7.2 76.1 7.2zM96 16H83.52L78 22h16v48H6V22h51.2l4.22-6H4c-2.2 0-4 1.8-4 4v58c0 2.2 1.8 4 4 4h92c2.2 0 4-1.8 4-4V20c0-2.2-1.8-4-4-4z"/></svg>