<svg xmlns="http://www.w3.org/2000/svg" width="100" height="100"><path d="M94 6H6c-3.3 0-6 2.7-6 6v76c0 3.3 2.7 6 6 6h88c3.3 0 6-2.7 6-6V12c0-3.3-2.7-6-6-6zm-15 4c2.2 0 4 1.8 4 4s-1.8 4-4 4-4-1.8-4-4 1.8-4 4-4zm-11 0c2.2 0 4 1.8 4 4s-1.8 4-4 4-4-1.8-4-4 1.8-4 4-4zM32.67 88C34.1 79.7 41.3 73.4 50 73.4c8.7 0 15.9 6.3 17.32 14.6H32.68zM94 85.72c0-1.94-1.58-3.48-3.52-3.48h-6.4c-.83-3.2-2.1-6.3-3.77-9.1l4.55-4.53c1.37-1.37 1.37-3.6 0-4.97l-7.47-7.47c-1.38-1.38-3.6-1.38-4.98 0l-4.56 4.53c-2.8-1.67-5.88-2.95-9.1-3.8v-6.38c0-1.94-1.52-3.52-3.46-3.52H44.72c-1.94 0-3.48 1.58-3.48 3.52v6.4c-3.2.83-6.3 2.12-9.08 3.77l-4.55-4.54c-1.36-1.38-3.6-1.38-4.97 0l-7.47 7.46c-1.38 1.38-1.38 3.6 0 4.98l4.53 4.56c-1.66 2.8-2.95 5.88-3.78 9.1h-6.4C7.58 82.23 6 83.77 6 85.7V22h88v63.72zM90 18c-2.2 0-4-1.8-4-4s1.8-4 4-4 4 1.8 4 4-1.8 4-4 4z"/></svg>