<svg xmlns="http://www.w3.org/2000/svg" viewBox="-157 545 100 100">
  <path d="M-80.7 628h-10.7c-0.4 0-0.7-0.3-0.7-0.7v-2.5c0-0.4-0.3-0.7-0.7-0.7h-15c-0.4 0-0.7 0.3-0.7 0.7v2.5c0 0.4-0.3 0.7-0.7 0.7h-8.1c-0.4 0-0.7 0.3-0.7 0.7v2.9c0 0.4 0.3 0.7 0.7 0.7h36.6c0.4 0 0.7-0.3 0.7-0.7v-2.9C-80 628.3-80.3 628-80.7 628z"/>
  <path d="M-62.8 557.3h-75.5c-2.6 0-4.8 2.2-4.8 4.8 0 0 0 9.2 0 12.6 0 1.7-0.1 1.9 1 1.9 0.6 0 1.2 0 1.9 0 0.9 0 0.7-0.2 0.7-1.9 0-3.4 0-12.6 0-12.6 0-0.6 0.5-1.2 1.2-1.2h75.5c0.6 0 1.2 0.5 1.2 1.2v47.3h-53.8c0 0-1.9 0-1.9 2.5 0 1.5 0 4.4 0 5.9 0 2.5 2 2.5 2 2.5h52.6c2.6 0 4.8-2.2 4.8-4.8v-53.3C-58 559.4-60.1 557.3-62.8 557.3zM-100.9 616.1c-1.2 0-2.2-1-2.2-2.2 0-1.2 1-2.2 2.2-2.2 1.2 0 2.2 1 2.2 2.2S-99.7 616.1-100.9 616.1z"/>
  <path d="M-125.1 580.5h-27.8c-1.7 0-3.1 1.4-3.1 3.1v45.7c0 1.7 1.4 3.1 3.1 3.1h27.8c1.7 0 3.1-1.4 3.1-3.1v-45.7C-122 581.9-123.4 580.5-125.1 580.5zM-142.4 584.2h6.8c0.3 0 0.6 0.3 0.6 0.6 0 0.3-0.3 0.6-0.6 0.6h-6.8c-0.3 0-0.6-0.3-0.6-0.6C-143 584.4-142.8 584.2-142.4 584.2zM-139 630.4c-0.9 0-1.6-0.7-1.6-1.6s0.7-1.6 1.6-1.6 1.6 0.7 1.6 1.6S-138.1 630.4-139 630.4zM-124.7 625.6c0 0.4-0.3 0.8-0.7 0.8h-27.1c-0.4 0-0.7-0.3-0.7-0.8V588c0-0.4 0.3-0.8 0.7-0.8h27.1c0.4 0 0.7 0.3 0.7 0.8V625.6z"/>
</svg>
