<?xml version="1.0" encoding="utf-8"?>
<!-- Generator: Adobe Illustrator 19.0.0, SVG Export Plug-In . SVG Version: 6.00 Build 0)  -->
<svg version="1.1" id="Large" xmlns="http://www.w3.org/2000/svg" xmlns:xlink="http://www.w3.org/1999/xlink" x="0px" y="0px"
	 viewBox="0 0 100 100" style="enable-background:new 0 0 100 100;" xml:space="preserve">
<g>
	<path d="M1.7,91h55V53h-55V91z M4.7,56h49v32h-49V56z"/>
	<polygon points="32.3,72 27.4,68.2 18.7,79 15.5,76.7 6.9,85.8 52.9,85.8 39.9,61.8 	"/>
	<circle cx="15.1" cy="65.6" r="4.5"/>
	<path d="M35.6,34.2c4.3,0,7.9-3.6,7.9-8s-3.5-8-7.9-8s-7.9,3.6-7.9,8S31.2,34.2,35.6,34.2z"/>
	<polygon points="16.6,8 16.6,50.2 19.6,50.2 19.6,11 95.6,11 95.6,61 59.7,61 59.7,64 98.6,64 98.6,8 	"/>
	<polygon points="92.6,56.6 73.1,20.6 61.5,35.9 54.3,30.1 41.2,46.4 36.3,43 29.6,50.1 59.7,50.1 59.7,56.6 	"/>
</g>
</svg>
