<?xml version="1.0" encoding="utf-8"?>
<!-- Generator: Adobe Illustrator 19.0.0, SVG Export Plug-In . SVG Version: 6.00 Build 0)  -->
<svg version="1.1" id="Layer_1" xmlns="http://www.w3.org/2000/svg" xmlns:xlink="http://www.w3.org/1999/xlink" x="0px" y="0px"
	 viewBox="-255 346.5 100 100" style="enable-background:new -255 346.5 100 100;" xml:space="preserve">
<g>
	<path d="M-156.6,378.1l-6.8-6.8c-0.8-0.8-2.1-0.8-2.9,0l-6.1,6.1l-5.9,5.9V367H-254v59h75.7v-23.4l21.7-21.7
		C-155.8,380.1-155.8,378.8-156.6,378.1z M-249.9,371.1h67.6v12h-67.6V371.1z M-182.4,421.9h-67.6v-34.9h67.6v0.3l-13.7,13.7
		c-0.2,0.2-0.3,0.4-0.4,0.6l-5.1,11.9c-0.3,0.8-0.2,1.6,0.4,2.2c0.4,0.4,0.9,0.6,1.4,0.6c0.3,0,0.5-0.1,0.8-0.2l11.9-5.1
		c0.2-0.1,0.5-0.3,0.6-0.4l4.1-4.1V421.9z M-193.7,405.4l2.9,2.9l-5.1,2.2L-193.7,405.4z M-181.8,400.3l-6.6,6.6l-3.9-3.9l21.5-21.5
		l3.9,3.9L-181.8,400.3z M-164.9,383.5l-3.9-3.9c0,0-0.3,0.1-0.2-0.2l0.2,0.2l4-4l3.9,3.9L-164.9,383.5z"/>
	<path d="M-235.4,405.4l5.9-4c0.6-0.4,0.7-1.1,0.3-1.7c-0.4-0.6-1.1-0.7-1.7-0.3l-7.4,5c-0.3,0.2-0.5,0.6-0.5,1s0.2,0.8,0.5,1l7.4,5
		c0.2,0.1,0.5,0.2,0.7,0.2c0.4,0,0.8-0.2,1-0.5c0.4-0.6,0.2-1.3-0.3-1.7L-235.4,405.4z"/>
	<path d="M-205.2,404.3l-7.4-5c-0.6-0.4-1.3-0.2-1.7,0.3c-0.4,0.6-0.2,1.3,0.3,1.7l5.9,4l-5.9,4c-0.6,0.4-0.7,1.1-0.3,1.7
		c0.2,0.3,0.6,0.5,1,0.5c0.2,0,0.5-0.1,0.7-0.2l7.4-5c0.3-0.2,0.5-0.6,0.5-1S-204.9,404.6-205.2,404.3z"/>
	<path d="M-218.4,396.8c-0.6-0.2-1.3,0.1-1.6,0.7l-5.8,14.8c-0.2,0.6,0.1,1.3,0.7,1.6c0.1,0.1,0.3,0.1,0.4,0.1c0.5,0,1-0.3,1.1-0.8
		l5.8-14.8C-217.4,397.8-217.7,397.1-218.4,396.8z"/>
	<circle cx="-243" cy="376.5" r="2.5"/>
	<circle cx="-236" cy="376.5" r="2.5"/>
	<circle cx="-229" cy="376.5" r="2.5"/>
</g>
</svg>
