<svg xmlns="http://www.w3.org/2000/svg" viewBox="0 0 100 100">
  <path d="M92.9 14.5c-18-13.5-37.3-2.2-39 14.3L1 28.8v61.9h62.1V49.3c2.8 2 6 3.4 9.6 4l0.1 5.3 -3.2 1.1v28.9c0 0 3.1 3.2 7.2 2.9 4.1-0.3 6.5-2.9 6.5-2.9l0-28.9 -3-0.8 -0.1-5.6C95.9 50.7 106.2 31.9 92.9 14.5zM11 33.5h30v3H11V33.5zM11 55h42v6H11V55zM53 84.9H11v-6h42V84.9zM53 72.9H11v-6h42V72.9zM53 49H11v-6h42V49zM76.3 48.5c-9.6 0-17.5-7.8-17.5-17.4 0-9.6 7.8-17.4 17.5-17.4 9.6 0 17.4 7.8 17.5 17.4C93.8 40.7 86 48.5 76.3 48.5z"/>
</svg>
