<svg xmlns="http://www.w3.org/2000/svg" viewBox="-255 347 100 100">
  <path d="M-157.6 393.7h-3.6c-1.5-9.3-9.5-16.2-19.1-16.2 -9.5 0-17.5 6.7-19.3 15.6 -1.6-1.3-3.4-2-5.2-2 -2 0-3.8 0.7-5.2 2 -2.1-9-10-15.6-19.3-15.6 -10.3 0-18.8 8-19.6 17.9h-3.4c-1 0-1.6 0.7-1.6 1.6s0.7 1.6 1.6 1.6h3.4c0.8 9.9 9.3 17.9 19.6 17.9 10.6 0 19.1-8.5 19.4-19 1.5-2.1 3.1-3.3 4.9-3.3s3.6 1.1 4.9 3.3c0.3 10.5 9 19 19.8 19 10.6 0 19.4-8.8 19.4-19.5h3.3c1 0 1.6-0.7 1.6-1.6C-156 394.4-156.7 393.7-157.6 393.7zM-229.4 413.2c-9.1 0-16.5-7.3-16.5-16.2 0-9 7.3-16.2 16.5-16.2 9 0 16.2 7.2 16.2 16.2C-213.2 406.1-220.5 413.2-229.4 413.2zM-180.3 413.2c-9.1 0-16.5-7.3-16.5-16.2 0-9 7.3-16.2 16.5-16.2 9 0 16.2 7.2 16.2 16.2C-164.1 406.1-171.4 413.2-180.3 413.2z"/>
</svg>
