<?xml version="1.0" encoding="utf-8"?>
<!-- Generator: Adobe Illustrator 19.2.1, SVG Export Plug-In . SVG Version: 6.00 Build 0)  -->
<svg version="1.1" id="Layer_1" xmlns="http://www.w3.org/2000/svg" xmlns:xlink="http://www.w3.org/1999/xlink" x="0px" y="0px"
	 viewBox="0 0 600 200" style="enable-background:new 0 0 600 200;" xml:space="preserve">
<style type="text/css">
	.st0{font-family:'HighTowerText-Reg';}
	.st1{font-size:20px;}
	.st2{fill:#231F20;}
	.st3{fill:#FFFFFF;}
	.st4{fill:none;}
</style>
<g>
	<g>
		<path d="M209.3,112.9c0.2,0.3,0.2,0.5,0.1,0.6c-0.1,0.1-0.4,0.4-1,0.6c-3.3,1.7-5.8,3.2-7.5,4.5c-0.5,0.4-0.9,0.4-1.2-0.1
			c-0.1-0.2,0-0.6,0.5-1c1-0.9,1.5-1.5,1.7-1.8c0.2-0.4,0-0.9-0.4-1.5c-3.1-4.6-6.2-9.2-9.3-13.9c-0.2-0.3-0.4-0.4-0.6-0.3
			c-0.1,0.1-0.2,0.3-0.2,0.5c0,5.5,0.2,9.3,0.4,11.5c0.3,4.5,0.7,7.8,1.1,10c0.2,1,0.3,1.5,0.3,1.6c0,0.3-0.1,0.5-0.3,0.7
			c-0.1,0.1-0.2,0.2-0.3,0.3c-0.2,0.2-0.7,0-1.3-0.5c-2.5-1.8-8.8-5.4-19.8-9.7c-0.3-0.1-0.6-0.1-0.7,0c-0.2,0.2-0.2,0.4,0,0.7
			c2.2,3.2,5.2,7.4,9,12.6c1,1.4,2.4,1.6,4.2,0.6c0.7-0.4,1.2-0.4,1.4-0.1c0.2,0.3,0.3,0.5,0.2,0.6c-0.1,0.2-0.4,0.4-0.9,0.8
			c-2.7,2-4.8,3.7-6.1,5c-0.5,0.5-0.9,0.5-1.2,0.1c-0.2-0.2,0-0.6,0.4-1.1c0.8-0.9,1.2-1.7,1.1-2.3c0-0.5-0.3-1.1-0.9-1.8
			c-3.4-4.6-6.9-9.3-10.3-13.9c-0.5-0.6-1-0.9-1.5-1c-0.5,0-1.3,0.1-2.4,0.5c-0.8,0.3-1.3,0.3-1.5,0c-0.2-0.3,0-0.6,0.6-1
			c2.2-1.4,3.9-2.8,5.3-4.1c0.5-0.5,0.9-0.8,1.2-0.9c0.3-0.1,0.6-0.1,1,0.1c6.5,2.8,12.9,5.9,19,9.2c0.2,0.1,0.4,0.2,0.5,0.1
			c0.1-0.1,0.1-0.3,0-0.7c-0.1-1.3-0.9-8.1-1.1-20.9c0-0.8,0.3-1.3,0.8-1.7c1.3-0.8,3-2,5.2-3.7c0.5-0.4,0.8-0.6,1-0.6
			c0.3-0.1,0.5,0.1,0.7,0.4c0.2,0.3-0.1,0.7-0.7,1.3c-1.5,1.4-2.1,2.5-1.7,3.1c3.4,5.3,6.9,10.7,10.3,16c0.4,0.6,0.9,1,1.3,1.1
			c0.4,0.1,1,0,1.8-0.3C208.7,112.5,209.1,112.5,209.3,112.9z"/>
		<path d="M235.3,88c1.2,3.6,0.7,7.1-1.2,10.6c-1.9,3.5-4.8,6-8.6,7.6c-4,1.8-7.8,2.3-11.6,1.4c-3.8-0.8-6.8-2.9-8.7-6.4
			c-1.8-3.4-1.9-7,0-10.9c1.8-3.8,5.1-6.8,9.5-8.7c4.6-2,8.9-2.3,12.8-1.1C231.5,81.8,234.1,84.3,235.3,88z M231.2,90.2
			c-1.3-3.6-3.5-6-6.6-7.1c-3-1.1-6.4-0.9-10.1,0.8c-3.1,1.4-5.1,3.4-6.1,6.2c-1,2.7-0.8,5.5,0.7,8.4c1.7,3.4,4.2,5.6,7.2,6.6
			c2.9,1,6,0.7,9.4-0.8c2.7-1.2,4.6-3,5.7-5.6C232.3,96,232.4,93.2,231.2,90.2z"/>
		<path d="M258.4,87.8c0.5,2.1,0,4.1-1.4,5.8c-1.5,1.8-3.7,3-6.7,3.9c-4,1.1-6.5,1.2-7.6,0.1c-0.7-0.7-1.4-1.6-2.3-2.7
			c-0.4-0.5-0.4-0.9,0-1.3c0.5-0.4,1-0.4,1.4-0.1c1.7,1.2,3.2,1.9,4.6,2.3c1.3,0.3,2.7,0.2,4.2-0.2c3.8-1,5.4-2.9,4.7-5.7
			c-0.3-1.1-0.9-1.9-2-2.5c-1-0.5-3-1.1-6-1.6c-3.8-0.6-6.4-1.2-7.8-1.7c-1.7-0.7-2.8-1.8-3.3-3.5c-0.6-1.7-0.2-3.5,1.2-5.2
			c1.4-1.8,3.5-3.1,6.3-3.8c2-0.5,4-0.8,5.9-0.9c1.5,0,2.4,0.2,2.7,0.6c0.6,0.9,1.2,2.1,1.6,3.6c0.2,0.5,0,0.9-0.4,1.1
			c-0.6,0.2-1,0.1-1.4-0.2c-1.3-1.4-2.7-2.2-4-2.5c-1.3-0.3-2.8-0.2-4.6,0.3c-1.6,0.4-2.8,1.1-3.5,2c-0.7,0.9-0.9,1.9-0.6,3
			c0.3,1,1,1.8,2.2,2.3c1.1,0.5,2.8,0.8,5.4,1.2c3.9,0.5,6.5,1.2,8.1,2C256.9,84.8,258,86.1,258.4,87.8z"/>
		<path d="M280.6,84.2c0.2,2.2-0.5,4-2.1,5.6c-1.6,1.6-4,2.6-7.1,3.1c-4.1,0.6-6.6,0.4-7.5-0.8c-0.6-0.8-1.2-1.7-1.9-3
			c-0.3-0.6-0.3-1,0.2-1.2c0.5-0.3,1-0.3,1.4,0c1.5,1.4,2.9,2.3,4.2,2.8c1.3,0.5,2.7,0.6,4.2,0.3c3.9-0.6,5.6-2.2,5.3-5.1
			c-0.1-1.1-0.7-2-1.7-2.7c-1-0.6-2.9-1.4-5.8-2.3c-3.7-1.1-6.2-1.9-7.5-2.6c-1.6-0.9-2.5-2.1-2.9-3.8c-0.4-1.8,0.2-3.5,1.8-5.1
			c1.6-1.6,3.8-2.6,6.7-3.1c2-0.3,4-0.4,6-0.2c1.5,0.1,2.4,0.5,2.6,0.9c0.5,1,0.9,2.3,1.2,3.8c0.1,0.6-0.1,0.9-0.6,1
			c-0.6,0.1-1,0-1.3-0.4c-1.1-1.5-2.4-2.5-3.7-3c-1.2-0.5-2.8-0.5-4.6-0.3c-1.6,0.3-2.9,0.8-3.7,1.6c-0.8,0.8-1.1,1.8-0.9,2.9
			c0.2,1.1,0.8,1.9,1.9,2.5c1,0.6,2.7,1.2,5.2,1.8c3.8,1,6.3,2,7.8,2.9C279.4,81.1,280.4,82.5,280.6,84.2z"/>
		<path d="M323.5,90.8c0,0.3-0.1,0.5-0.2,0.6c-0.1,0.1-0.4,0.1-0.8,0c-2.7-0.5-5.4-0.8-8.2-0.9c-0.5,0-0.9-0.1-1-0.2
			c-0.1-0.1-0.2-0.3-0.2-0.6c0-0.4,0.4-0.6,1.2-0.7c1.2-0.1,1.8-0.6,1.9-1.6c0.2-2.6,0.4-5.1,0.6-7.7c0-0.6,0-0.9-0.1-1.1
			c-0.1-0.2-0.5-0.3-1-0.4c-5.2-0.4-10.5-0.6-15.8-0.5c-0.7,0-1.1,0.1-1.2,0.2c-0.2,0.1-0.2,0.5-0.2,1.1c0,2.6,0.1,5.2,0.1,7.8
			c0,0.7,0.9,1.3,2.7,1.7c0.8,0.2,1.2,0.5,1.2,0.8c0,0.3-0.1,0.5-0.2,0.6c-0.1,0.1-0.5,0.1-1,0.1c-2.8-0.1-5.5,0-8.3,0.3
			c-0.4,0.1-0.7,0-0.8,0c-0.1-0.1-0.1-0.3-0.2-0.6c0-0.3,0.3-0.5,0.9-0.6c1.4-0.2,2-0.9,2-2.2c-0.2-6.2-0.4-12.5-0.6-18.7
			c0-1.2-0.9-1.9-2.7-2.2c-0.6-0.1-1-0.2-1.1-0.2c-0.1-0.1-0.2-0.2-0.2-0.4c0-0.2,0-0.3,0-0.4c0.1-0.3,0.5-0.4,1.4-0.4
			c4,0,7.2,0,9.7-0.2c0.4,0,0.7,0,0.9,0.1c0.1,0.1,0.2,0.3,0.2,0.6c0,0.2-0.4,0.4-1.1,0.6c-1.3,0.2-2,0.4-2.3,0.5
			c-0.5,0.3-0.7,0.8-0.7,1.6c0,2.2,0.1,4.4,0.1,6.6c0,0.9,0.5,1.4,1.5,1.4c5.2,0,10.4,0.1,15.7,0.5c0.6,0,1,0,1.2-0.1
			c0.2-0.2,0.4-0.6,0.4-1.2c0.2-2.2,0.4-4.5,0.5-6.7c0.1-0.7-0.1-1.2-0.5-1.5c-0.2-0.2-0.9-0.4-1.9-0.6c-0.9-0.2-1.3-0.5-1.3-0.8
			c0-0.4,0.1-0.6,0.3-0.6c0.2-0.1,0.6-0.1,1.2,0c1.7,0.3,3.5,0.4,5.4,0.5c1.3,0.1,2.6,0.1,4,0.2c0.4,0,0.7,0.1,0.8,0.2
			c0.1,0.1,0.1,0.3,0.1,0.6c0,0.3-0.4,0.5-1.1,0.5c-1.7,0-2.7,0.6-2.8,1.7c-0.6,6.4-1.3,12.8-1.9,19.1c-0.1,0.6,0.1,1.1,0.6,1.5
			c0.4,0.3,1.1,0.6,2.1,0.9C323.3,90.3,323.6,90.5,323.5,90.8z"/>
		<path d="M358.4,85.4c-1.1,3.6-3.5,6.2-7.1,7.9c-3.6,1.7-7.3,2.1-11.3,1.3c-4.2-0.9-7.5-2.7-10.1-5.5c-2.6-2.9-3.7-6.3-3.2-10.2
			c0.5-3.8,2.5-6.8,6.2-8.9c3.6-2,7.9-2.6,12.6-1.6c4.8,1,8.5,3.2,11,6.5C358.9,78.1,359.5,81.7,358.4,85.4z M353.8,84.8
			c1-3.7,0.6-6.9-1.2-9.6c-1.8-2.6-4.7-4.4-8.6-5.2c-3.2-0.7-6.1-0.1-8.5,1.5c-2.4,1.6-3.8,4.1-4.2,7.2c-0.6,3.8,0.1,6.9,1.9,9.5
			c1.8,2.5,4.4,4,8,4.8c2.9,0.6,5.4,0.2,7.8-1.3C351.3,90.2,353,87.9,353.8,84.8z"/>
		<path d="M396.8,87.5c-0.1,0.2-0.5,0.2-1.2,0.1c-1.2-0.3-2.1-0.5-2.5-0.4c-0.5,0.1-1,0.6-1.4,1.4c-1.6,3.4-3.2,6.7-4.8,10.1
			c-1.5,3.2-3.7,5.3-6.4,6.2c-2.8,0.9-5.9,0.6-9.6-0.8c-7.7-3-10.6-7.6-8.4-14.5c1.2-3.7,2.4-7.4,3.6-11.1c0.4-1.2-0.2-2.2-1.8-2.9
			c-0.6-0.3-0.9-0.5-1-0.6c-0.1-0.1-0.1-0.3-0.1-0.5c0.1-0.4,0.3-0.6,0.5-0.6c0.1,0,0.5,0.1,1.1,0.3c4.1,1.5,7.2,2.5,9.4,3.2
			c0.5,0.1,0.7,0.2,0.8,0.4c0.1,0.1,0,0.3-0.1,0.7c-0.1,0.3-0.5,0.3-1.2,0.2c-1.3-0.2-2.1-0.3-2.4-0.3c-0.6,0.1-1,0.5-1.2,1.3
			c-1.2,3.6-2.5,7.1-3.7,10.7c-1.1,3.1-1.1,5.7-0.2,7.7c0.9,2,2.9,3.5,6,4.8c5.3,2.2,9.2,0.7,11.7-4.8c1.6-3.4,3.1-6.8,4.7-10.2
			c0.4-0.8,0.4-1.5,0-2.1c-0.3-0.5-0.9-1-1.8-1.6c-0.8-0.5-1.1-0.9-0.9-1.2c0.2-0.4,0.4-0.5,0.6-0.5c0.1,0,0.4,0.2,1.1,0.4
			c4,1.9,6.8,3.3,8.4,3.9c0.6,0.2,0.9,0.5,0.8,0.8C396.9,87.2,396.9,87.3,396.8,87.5z"/>
		<path d="M407.3,114.4c-1.2,1.8-2.9,2.8-5.2,3c-2.3,0.2-4.8-0.6-7.6-2.2c-3.7-2.1-5.5-3.8-5.5-5.4c0-1,0.1-2.1,0.3-3.5
			c0.1-0.6,0.4-0.9,0.9-0.9c0.6,0.1,1,0.4,1.1,0.9c0.4,2,0.9,3.6,1.7,4.9c0.7,1.2,1.8,2.1,3.2,2.9c3.5,2,5.9,1.9,7.5-0.6
			c0.6-1,0.7-2,0.3-3.2c-0.4-1.1-1.4-2.9-3.2-5.5c-2.3-3.2-3.8-5.4-4.4-6.8c-0.7-1.7-0.7-3.3,0.1-4.8c0.8-1.6,2.4-2.6,4.6-2.8
			c2.3-0.2,4.7,0.4,7.3,1.8c1.8,1,3.5,2.3,4.9,3.7c1.1,1.1,1.6,1.9,1.5,2.4c-0.2,1.1-0.7,2.4-1.4,3.7c-0.3,0.5-0.6,0.6-1.1,0.4
			c-0.6-0.3-0.8-0.6-0.8-1.1c0-1.9-0.4-3.5-1.1-4.7c-0.7-1.1-1.9-2.2-3.6-3.1c-1.5-0.8-2.8-1.2-4-1.1c-1.2,0.1-2,0.7-2.6,1.7
			c-0.5,1-0.5,2-0.1,3.2c0.4,1.1,1.5,2.6,3,4.7c2.4,3.2,3.8,5.6,4.4,7.2C408.3,111.2,408.2,113,407.3,114.4z"/>
		<path d="M427.1,131.6c-1.3,0.9-2.6,1.9-3.7,3c-0.2,0.2-0.6,0-1.2-0.6c-1.7-1.6-4-3.5-6.8-5.6c-3.1-2.4-5.9-4.2-8.3-5.7
			c-0.5-0.3-0.7-0.7-0.4-1.1c0.2-0.3,0.6-0.3,1.1,0c0.8,0.4,1.3,0.6,1.7,0.6c0.4,0,0.8-0.4,1.3-1.1c3.4-4.9,6.8-9.9,10.3-14.8
			c0.7-1,1-1.7,1-2.1c0-0.4-0.5-1.1-1.4-2.1c-0.5-0.5-0.5-0.9-0.1-1.2c0.2-0.2,0.4-0.2,0.6-0.1c0.2,0.1,0.5,0.3,1,0.8
			c0.8,0.7,3,2.3,6.7,5c3.6,2.7,6.7,5,9.3,7c0.9,0.7,1.3,1.1,1.1,1.2c0,0.1-0.1,0.1-0.2,0.1c-1.1,0.8-2.1,1.8-3.2,3.1
			c-0.2,0.3-0.6,0.3-0.9,0c-0.4-0.3-0.5-0.6-0.4-1c0.2-1,0.3-1.7,0.2-2.2c-0.1-0.7-0.5-1.4-1.2-2.2c-0.6-0.6-2.7-2.4-6.6-5.2
			c-0.4-0.3-0.8-0.5-1-0.4c-0.1,0-0.3,0.1-0.4,0.4c-1.6,2.2-3.2,4.4-4.8,6.6c-0.2,0.3-0.1,0.5,0.3,0.8c1.2,0.8,2.9,2,5.1,3.6
			c0.4,0.3,0.8,0.3,1.2,0.2c0.3-0.1,0.8-0.4,1.4-0.9c0.5-0.3,0.9-0.3,1.3,0.2c0.4,0.4,0.4,0.7,0.2,0.9c-1.5,1.1-3,2.8-4.7,5.1
			c-0.2,0.3-0.5,0.2-1,0c-0.4-0.2-0.5-0.6-0.2-1c0.5-0.9,0.8-1.5,0.8-1.9c0-0.4-0.2-0.8-0.7-1.3c-0.9-0.9-2.4-2.1-4.5-3.7
			c-0.2-0.2-0.4-0.2-0.5,0c-1.7,2.3-3.3,4.6-5,6.9c-0.7,1-0.5,2,0.6,3.2c0.3,0.3,1.4,1.1,3.2,2.6c2.9,2.3,5.4,2.9,7.6,1.8
			c0.5-0.3,0.9-0.2,1.2,0.3C427.4,131.1,427.4,131.4,427.1,131.6z"/>
	</g>
</g>
<text transform="matrix(1 0 0 1 277.9785 50.8442)" class="st0 st1">THE</text>
<g>
	<path class="st2" d="M143.3,90.8c0.2,0,0.5-0.1,0.6-0.2c0.1-0.1,0.1-0.2,0.2-0.4c0-0.7,0-1.4,0-2.2c-0.1-0.3-0.3-0.6-0.7-0.6
		c-0.4,0-0.7,0.4-0.9,0.7l-7,0.7c-0.1-0.2-0.2-0.3-0.4-0.4c-0.3-0.1-0.6,0-0.8,0c-0.5,0-0.7,0.4-0.7,0.9c0,0.4,0.2,0.8,0.6,1
		c0.5,0.2,1,0,1.3-0.4l7,0.2C142.6,90.5,142.9,90.8,143.3,90.8z"/>
	<path class="st2" d="M158.9,88.4c-0.3,0-0.6-0.1-0.8,0c-0.2,0.1-0.3,0.3-0.4,0.4l-7-0.7c-0.2-0.3-0.5-0.7-0.9-0.7
		c-0.4,0-0.6,0.3-0.7,0.6c0,0.7,0,1.4,0,2c0,0.2,0.1,0.3,0.2,0.4c0.1,0.2,0.4,0.2,0.6,0.2c0.4,0,0.7-0.3,0.9-0.6l7-0.2
		c0.3,0.3,0.8,0.5,1.3,0.4c0.4-0.1,0.6-0.6,0.6-1C159.7,88.8,159.4,88.4,158.9,88.4z"/>
	<path class="st2" d="M148.8,81.9c0.3,0,0.6-0.1,0.8-0.3c0.2-0.2,0.3-0.6,0.2-0.9c-0.2-0.4-0.9-0.7-0.8-1.3c0.2-0.6,1-0.6,1.3-1.1
		c0.2-0.3,0.1-0.7-0.1-0.9c-0.2-0.3-0.5-0.5-0.8-0.7l-0.3-0.1c0-1.3-0.1-2.7,0-4c0-0.5,0.2-1,0.7-1.3c0.5-0.3,1-0.2,1.5-0.4
		c0.9-0.2,1.6-0.8,1.7-1.7c0.1-0.5,0-1-0.2-1.5c-0.2-0.5-0.7-0.7-1.1-0.9l0.6-0.1l2.8-15.5l1.4-3.6l-1.8,1.2l-4.7-3.3
		c0-0.2-0.3-1.4-0.4-1.8c-0.1-0.6-0.6-1.1-1-1.5c0,0,0.6-0.4,0.7-0.7c0.1-0.4-0.1-0.8-0.3-1.2c-0.4-0.7-1-1.1-1.8-1.3l-0.1-0.3
		c0.2-0.1,0.4-0.2,0.5-0.4c0.1-0.1,0.2-0.3,0.2-0.5c0.1-0.3-0.1-0.7-0.3-0.9c-0.2-0.3-0.4-0.5-0.5-0.9c-0.1-0.2-0.1-0.5-0.4-0.6
		l-0.2,0l-0.2,0c-0.3,0.1-0.3,0.4-0.4,0.6c-0.1,0.4-0.3,0.6-0.5,0.9c-0.2,0.2-0.4,0.6-0.3,0.9c0.1,0.2,0.1,0.3,0.2,0.5
		c0.1,0.2,0.3,0.2,0.5,0.4l-0.1,0.3c-0.7,0.2-1.4,0.6-1.8,1.3c-0.2,0.3-0.4,0.8-0.3,1.2c0.1,0.3,0.7,0.7,0.7,0.7
		c-0.5,0.4-1,0.8-1.1,1.5c0,0.4-0.4,1.6-0.4,1.8l-4.7,3.3l-1.8-1.2l1.4,3.6l2.8,15.5l0.6,0.1c-0.4,0.3-0.9,0.5-1.1,0.9
		c-0.2,0.4-0.3,1-0.2,1.5c0.2,0.9,0.9,1.5,1.7,1.7c0.5,0.1,1,0.1,1.5,0.4c0.5,0.3,0.7,0.7,0.7,1.3c0.1,1.3,0,2.7,0,4l-0.3,0.1
		c-0.4,0.2-0.6,0.4-0.8,0.7c-0.2,0.3-0.3,0.6-0.1,0.9c0.3,0.5,1.1,0.5,1.3,1.1c0.1,0.5-0.6,0.8-0.8,1.3c-0.1,0.3-0.1,0.7,0.2,0.9
		c0.2,0.2,0.6,0.3,0.8,0.3 M148.8,81.9 M144.3,81.9 M144.3,73.2c0-0.7,0.1-1.8-0.7-2.1c-0.4-0.1-0.9-0.2-1.3-0.3
		c-0.4-0.1-0.8-0.2-1.2-0.4c-0.6-0.4-0.9-1.1-0.8-1.9c0.1-0.7,0.7-1.2,1.3-1.5l3.9,0.5l0.1,5.6L144.3,73.2z M152.7,68.5
		c0.1,0.7-0.2,1.5-0.8,1.9c-0.4,0.2-0.8,0.3-1.2,0.4c-0.4,0.1-0.9,0.1-1.3,0.3c-0.8,0.3-0.7,1.4-0.7,2.1l-1.2-0.1l0-5.6l3.9-0.5
		C152,67.4,152.6,67.8,152.7,68.5z"/>
	<path class="st2" d="M144.5,113c-0.3,0.1-0.7,0.2-0.8,0.6c-0.1,0.2-0.1,0.5-0.1,0.7c0.1,0.3,0.2,0.4,0.3,0.7v1.2
		c-0.4,0.2-0.4,0.7-0.5,1.1c-0.1,0.8-0.2,1.5-0.3,2.3c-0.2,1.6-0.5,3.2-0.7,4.7c-0.1,0.8-0.2,1.5-0.3,2.3c-0.1,0.4-0.1,0.8-0.1,1.1
		c0,0.4-0.1,0.7,0,1.1c0.1,0.3,0.2,0.6,0.4,0.7c0.1,0.1,0.3,0.2,0.3,0.4c-0.1,0.4,0,1.7,0.1,2c0.1,0.3,0.4,0.5,0.4,0.8
		c0.1,0.3-0.1,0.5-0.3,0.6c-0.3,0.2-0.5,0.5-0.8,0.7c-0.4,0.4-0.8,0.9-0.9,1.6c-0.1,0.3-0.1,0.8,0.1,1c0.2,0.3,0.4,0.6,0.6,0.8
		l-0.1,0.8l-2.3,0.1l-0.5,4.2l7.3,0h0.6l7.3,0l-0.5-4.2l-2.3-0.1l-0.1-0.8c0.2-0.2,0.5-0.5,0.6-0.8c0.2-0.2,0.1-0.7,0.1-1
		c-0.1-0.7-0.5-1.1-0.9-1.6c-0.3-0.3-0.5-0.5-0.8-0.7c-0.2-0.2-0.4-0.3-0.3-0.6c0.1-0.3,0.3-0.5,0.4-0.8c0.1-0.3,0.2-1.7,0.1-2
		c-0.1-0.2,0.1-0.3,0.3-0.4c0.2-0.2,0.4-0.5,0.4-0.7c0.1-0.4,0-0.7,0-1.1c0-0.4-0.1-0.8-0.1-1.1c-0.1-0.8-0.2-1.5-0.3-2.3
		c-0.2-1.6-0.5-3.2-0.7-4.7c-0.1-0.8-0.3-1.5-0.3-2.3c0-0.4-0.1-1-0.5-1.1V115c0.1-0.2,0.3-0.4,0.3-0.7c0-0.2,0-0.5-0.1-0.7
		c-0.1-0.4-0.5-0.5-0.8-0.6"/>
	<polygon class="st3" points="153.4,52.2 150.9,66.5 147,65.8 147.3,51.1 	"/>
	<polygon class="st3" points="139,52.2 141.5,66.5 145.4,65.8 145.7,51.1 	"/>
</g>
<path class="st4" d="M134.1,52l4.7,1c-1.4-2.1-3.4,0.5-3.4,0.5l2-2.6"/>
<rect x="144" y="76" class="st2" width="5" height="38"/>
<g>
	<path class="st2" d="M450.9,90.6c0.2,0,0.5-0.1,0.6-0.2c0.1-0.1,0.1-0.2,0.2-0.4c0-0.7,0-1.4,0-2.2c-0.1-0.3-0.3-0.6-0.7-0.6
		c-0.4,0-0.7,0.4-0.9,0.7l-7,0.7c-0.1-0.2-0.2-0.3-0.4-0.4c-0.3-0.1-0.6,0-0.8,0c-0.5,0-0.7,0.4-0.7,0.9c0,0.4,0.2,0.8,0.6,1
		c0.5,0.2,1,0,1.3-0.4l7,0.2C450.2,90.3,450.5,90.6,450.9,90.6z"/>
	<path class="st2" d="M466.5,88.2c-0.3,0-0.6-0.1-0.8,0c-0.2,0.1-0.3,0.3-0.4,0.4l-7-0.7c-0.2-0.3-0.5-0.7-0.9-0.7
		c-0.4,0-0.6,0.3-0.7,0.6c0,0.7,0,1.4,0,2c0,0.2,0.1,0.3,0.2,0.4c0.1,0.2,0.4,0.2,0.6,0.2c0.4,0,0.7-0.3,0.9-0.6l7-0.2
		c0.3,0.3,0.8,0.5,1.3,0.4c0.4-0.1,0.6-0.6,0.6-1C467.2,88.6,467,88.3,466.5,88.2z"/>
	<path class="st2" d="M456.4,81.8c0.3,0,0.6-0.1,0.8-0.3c0.2-0.2,0.3-0.6,0.2-0.9c-0.2-0.4-0.9-0.7-0.8-1.3c0.2-0.6,1-0.6,1.3-1.1
		c0.2-0.3,0.1-0.7-0.1-0.9c-0.2-0.3-0.5-0.5-0.8-0.7l-0.3-0.1c0-1.3-0.1-2.7,0-4c0-0.5,0.2-1,0.7-1.3c0.5-0.3,1-0.2,1.5-0.4
		c0.9-0.2,1.6-0.8,1.7-1.7c0.1-0.5,0-1-0.2-1.5c-0.2-0.5-0.7-0.7-1.1-0.9l0.6-0.1l2.8-15.5l1.4-3.6l-1.8,1.2l-4.7-3.3
		c0-0.2-0.3-1.4-0.4-1.8c-0.1-0.6-0.6-1.1-1-1.5c0,0,0.6-0.4,0.7-0.7c0.1-0.4-0.1-0.8-0.3-1.2c-0.4-0.7-1-1.1-1.8-1.3l-0.1-0.3
		c0.2-0.1,0.4-0.2,0.5-0.4c0.1-0.1,0.2-0.3,0.2-0.5c0.1-0.3-0.1-0.7-0.3-0.9c-0.2-0.3-0.4-0.5-0.5-0.9c-0.1-0.2-0.1-0.5-0.4-0.6
		l-0.2,0l-0.2,0c-0.3,0.1-0.3,0.4-0.4,0.6c-0.1,0.4-0.3,0.6-0.5,0.9c-0.2,0.2-0.4,0.6-0.3,0.9c0.1,0.2,0.1,0.3,0.2,0.5
		c0.1,0.2,0.3,0.2,0.5,0.4l-0.1,0.3c-0.7,0.2-1.4,0.6-1.8,1.3c-0.2,0.3-0.4,0.8-0.3,1.2c0.1,0.3,0.7,0.7,0.7,0.7
		c-0.5,0.4-1,0.8-1.1,1.5c0,0.4-0.4,1.6-0.4,1.8l-4.7,3.3l-1.8-1.2l1.4,3.6l2.8,15.5l0.6,0.1c-0.4,0.3-0.9,0.5-1.1,0.9
		c-0.2,0.4-0.3,1-0.2,1.5c0.2,0.9,0.9,1.5,1.7,1.7c0.5,0.1,1,0.1,1.5,0.4c0.5,0.3,0.7,0.7,0.7,1.3c0.1,1.3,0,2.7,0,4l-0.3,0.1
		c-0.4,0.2-0.6,0.4-0.8,0.7c-0.2,0.3-0.3,0.6-0.1,0.9c0.3,0.5,1.1,0.5,1.3,1.1c0.1,0.5-0.6,0.8-0.8,1.3c-0.1,0.3-0.1,0.7,0.2,0.9
		c0.2,0.2,0.6,0.3,0.8,0.3 M456.4,81.8 M451.8,81.8 M451.8,73c0-0.7,0.1-1.8-0.7-2.1c-0.4-0.1-0.9-0.2-1.3-0.3
		c-0.4-0.1-0.8-0.2-1.2-0.4c-0.6-0.4-0.9-1.1-0.8-1.9c0.1-0.7,0.7-1.2,1.3-1.5l3.9,0.5l0.1,5.6L451.8,73z M460.2,68.4
		c0.1,0.7-0.2,1.5-0.8,1.9c-0.4,0.2-0.8,0.3-1.2,0.4c-0.4,0.1-0.9,0.1-1.3,0.3c-0.8,0.3-0.7,1.4-0.7,2.1L455,73l0-5.6l3.9-0.5
		C459.5,67.2,460.1,67.6,460.2,68.4z"/>
	<path class="st2" d="M452.1,112.9c-0.3,0.1-0.7,0.2-0.8,0.6c-0.1,0.2-0.1,0.5-0.1,0.7c0.1,0.3,0.2,0.4,0.3,0.7v1.2
		c-0.4,0.2-0.4,0.7-0.5,1.1c-0.1,0.8-0.2,1.5-0.3,2.3c-0.2,1.6-0.5,3.2-0.7,4.7c-0.1,0.8-0.2,1.5-0.3,2.3c-0.1,0.4-0.1,0.8-0.1,1.1
		c0,0.4-0.1,0.7,0,1.1c0.1,0.3,0.2,0.6,0.4,0.7c0.1,0.1,0.3,0.2,0.3,0.4c-0.1,0.4,0,1.7,0.1,2c0.1,0.3,0.4,0.5,0.4,0.8
		c0.1,0.3-0.1,0.5-0.3,0.6c-0.3,0.2-0.5,0.5-0.8,0.7c-0.4,0.4-0.8,0.9-0.9,1.6c-0.1,0.3-0.1,0.8,0.1,1c0.2,0.3,0.4,0.6,0.6,0.8
		l-0.1,0.8l-2.3,0.1l-0.5,4.2l7.3,0h0.6l7.3,0l-0.5-4.2l-2.3-0.1l-0.1-0.8c0.2-0.2,0.5-0.5,0.6-0.8c0.2-0.2,0.1-0.7,0.1-1
		c-0.1-0.7-0.5-1.1-0.9-1.6c-0.3-0.3-0.5-0.5-0.8-0.7c-0.2-0.2-0.4-0.3-0.3-0.6c0.1-0.3,0.3-0.5,0.4-0.8c0.1-0.3,0.2-1.7,0.1-2
		c-0.1-0.2,0.1-0.3,0.3-0.4c0.2-0.2,0.4-0.5,0.4-0.7c0.1-0.4,0-0.7,0-1.1c0-0.4-0.1-0.8-0.1-1.1c-0.1-0.8-0.2-1.5-0.3-2.3
		c-0.2-1.6-0.5-3.2-0.7-4.7c-0.1-0.8-0.3-1.5-0.3-2.3c0-0.4-0.1-1-0.5-1.1v-1.2c0.1-0.2,0.3-0.4,0.3-0.7c0-0.2,0-0.5-0.1-0.7
		c-0.1-0.4-0.5-0.5-0.8-0.6"/>
	<polygon class="st3" points="461,52.1 458.5,66.3 454.6,65.6 454.9,51 	"/>
	<polygon class="st3" points="446.5,52.1 449.1,66.3 452.9,65.6 453.3,51 	"/>
</g>
<path class="st4" d="M441.7,51.8l4.7,1c-1.4-2.1-3.4,0.5-3.4,0.5l2-2.6"/>
<rect x="451.6" y="76.2" class="st2" width="5.1" height="37.9"/>
</svg>
