<svg xmlns="http://www.w3.org/2000/svg" xmlns:xlink="http://www.w3.org/1999/xlink" version="1.1" x="0px" y="0px" viewBox="0 0 89.961 102.41125" style="enable-background:new 0 0 89.961 81.929;" xml:space="preserve"><g><g><circle cx="73.896" cy="74.7" r="2.41"/><rect x="6.427" y="19.277" width="30.521" height="22.491"/><rect x="64.258" y="44.98" width="19.277" height="8.031"/><circle cx="17.671" cy="8.032" r="1.606"/><circle cx="8.032" cy="8.032" r="1.606"/><circle cx="12.852" cy="8.032" r="1.606"/><circle cx="70.684" cy="34.539" r="0.803"/><path d="M77.109,33.735h-4.016c-0.443,0-0.804,0.36-0.804,0.803c0,0.443,0.36,0.803,0.804,0.803h4.016    c0.442,0,0.803-0.36,0.803-0.803C77.912,34.095,77.552,33.735,77.109,33.735z"/><path d="M83.535,27.309h-6.426V6.426C77.109,2.877,74.232,0,70.684,0H6.427C2.877,0,0,2.877,0,6.426v53.013    c0,3.548,2.877,6.426,6.427,6.426h51.404v9.639c0,3.548,2.878,6.426,6.427,6.426h19.277c3.549,0,6.426-2.878,6.426-6.426V33.735    C89.961,30.187,87.084,27.309,83.535,27.309z M3.213,6.426c0-1.774,1.438-3.213,3.214-3.213h64.257    c1.774,0,3.213,1.439,3.213,3.213v6.426H3.213V6.426z M57.831,33.735V62.65H6.427c-1.775,0-3.214-1.438-3.214-3.212V16.064h70.684    v11.245h-9.639C60.709,27.309,57.831,30.187,57.831,33.735z M86.748,75.503c0,1.774-1.438,3.212-3.213,3.212H64.258    c-1.774,0-3.213-1.438-3.213-3.212v-4.819h25.703V75.503z M86.748,67.471H61.045V41.768h25.703V67.471z M86.748,38.555H61.045    v-4.819c0-1.774,1.438-3.213,3.213-3.213h19.277c1.774,0,3.213,1.439,3.213,3.213V38.555z"/><rect x="64.258" y="56.226" width="19.277" height="8.032"/><path d="M70.684,24.097v-4.82H40.161v22.491h14.458V34.14c0-5.538,4.506-10.043,10.043-10.043H70.684z"/><rect x="6.427" y="44.98" width="48.192" height="14.458"/></g></g><text x="0" y="96.929" fill="#000000" font-size="5px" font-weight="bold" font-family="'Helvetica Neue', Helvetica, Arial-Unicode, Arial, Sans-serif">Created by Douglas Santos</text><text x="0" y="101.929" fill="#000000" font-size="5px" font-weight="bold" font-family="'Helvetica Neue', Helvetica, Arial-Unicode, Arial, Sans-serif">from the Noun Project</text></svg>